<svg width="74" height="82" viewBox="0 0 74 82" fill="none" xmlns="http://www.w3.org/2000/svg">
<path fill-rule="evenodd" clip-rule="evenodd" d="M24.6031 72.1513C20.6087 70.5375 18.6718 65.9754 20.2853 61.9819L23.0113 55.2347C24.2281 52.223 27.6684 50.7632 30.6805 51.9802L34.2432 53.4196C37.2555 54.6366 38.716 58.0767 37.4992 61.0882L34.7732 67.8354C33.1599 71.8292 28.5975 73.7652 24.6031 72.1513Z" fill="#FF52A8"/>
<path fill-rule="evenodd" clip-rule="evenodd" d="M41.7377 30.3139L41.3407 30.1535C38.3268 28.9358 36.8649 25.4952 38.0816 22.4837L41.4471 14.1538C42.7081 11.0329 46.2749 9.52044 49.3981 10.7823C52.5212 12.0441 54.0365 15.6098 52.7755 18.7307L49.41 27.0607C48.1934 30.0721 44.7514 31.5315 41.7377 30.3139Z" fill="#FF52A8"/>
<path fill-rule="evenodd" clip-rule="evenodd" d="M47.0843 18.9971L45.3555 18.2986C35.6799 14.3894 24.6275 19.0817 20.7178 28.7586L14.14 45.0392C13.7245 46.0675 14.2213 47.2379 15.2494 47.6533L48.3491 61.0265C49.3773 61.4419 50.5476 60.945 50.9631 59.9167L57.5409 43.6361C61.4507 33.9592 56.7598 22.9062 47.0843 18.997L47.0843 18.9971Z" fill="#FEEB70"/>
<path fill-rule="evenodd" clip-rule="evenodd" d="M45.4626 71.4294L10.1 57.142C6.47407 55.677 4.71552 51.5363 6.17994 47.9117L6.38981 47.3923C7.85418 43.7678 11.9955 42.0111 15.6214 43.4761L50.9841 57.7635C54.6102 59.2286 56.3688 63.3692 54.9045 66.9935L54.6946 67.5129C53.23 71.1374 49.0886 72.8944 45.4626 71.4294L45.4626 71.4294Z" fill="#FEF7CB"/>
</svg>
