<svg width="22" height="22" viewBox="0 0 22 22" fill="none" xmlns="http://www.w3.org/2000/svg">
<path fill-rule="evenodd" clip-rule="evenodd" d="M19.4898 1.81774C19.0995 1.4274 18.4657 1.4283 18.0743 1.81973L1.94556 17.9485C1.55409 18.3399 1.55323 18.9737 1.94356 19.364C2.33392 19.7544 2.96764 19.7535 3.35912 19.362L19.4878 3.23329C19.8793 2.84186 19.8802 2.2081 19.4898 1.81774Z" fill="white" stroke="white" stroke-width="3"/>
<path fill-rule="evenodd" clip-rule="evenodd" d="M19.4878 17.9485L3.35905 1.81974C2.96762 1.42831 2.33225 1.429 1.93997 1.82128C1.54765 2.21359 1.547 2.84893 1.93843 3.24036L18.0672 19.3691C18.4586 19.7606 19.0939 19.7599 19.4862 19.3676C19.8785 18.9753 19.8793 18.3399 19.4878 17.9485Z" fill="white" stroke="white" stroke-width="3"/>
</svg>
